<svg version="1.1" xmlns="http://www.w3.org/2000/svg" xmlns:xlink="http://www.w3.org/1999/xlink" width="120px" height="120px" viewBox="0,0,256,256"><g fill="none" fill-rule="nonzero" stroke="none" stroke-width="1" stroke-linecap="butt" stroke-linejoin="miter" stroke-miterlimit="10" stroke-dasharray="" stroke-dashoffset="0" font-family="none" font-weight="none" font-size="none" text-anchor="none" style="mix-blend-mode: normal"><g transform="scale(2.56,2.56)"><path d="M74,81h-48c-3.85,0 -7,-3.15 -7,-7v-48c0,-3.85 3.15,-7 7,-7h48c3.85,0 7,3.15 7,7v48c0,3.85 -3.15,7 -7,7z" fill="#9ba72d"></path><path d="M27.5,22.5c-1.10457,0 -2,0.89543 -2,2c0,1.10457 0.89543,2 2,2c1.10457,0 2,-0.89543 2,-2c0,-1.10457 -0.89543,-2 -2,-2z" fill="#ef5390"></path><path d="M34.5,22.5c-1.10457,0 -2,0.89543 -2,2c0,1.10457 0.89543,2 2,2c1.10457,0 2,-0.89543 2,-2c0,-1.10457 -0.89543,-2 -2,-2z" fill="#ffffff"></path><path d="M41.5,22.5c-1.10457,0 -2,0.89543 -2,2c0,1.10457 0.89543,2 2,2c1.10457,0 2,-0.89543 2,-2c0,-1.10457 -0.89543,-2 -2,-2z" fill="#60be92"></path><path d="M47,49v-13h29v13c0,0.552 -0.448,1 -1,1h-19h-8c-0.552,0 -1,-0.448 -1,-1zM61.5,53.5h14v14h-14z" fill="#131617"></path><path d="M74,18h-48c-4.411,0 -8,3.589 -8,8v48c0,4.411 3.589,8 8,8h48c4.411,0 8,-3.589 8,-8v-48c0,-4.411 -3.589,-8 -8,-8zM74,80h-48c-3.309,0 -6,-2.691 -6,-6h8.5c0.277,0 0.5,-0.224 0.5,-0.5c0,-0.276 -0.224,-0.5 -0.5,-0.5h-8.5v-43h38.5c0.277,0 0.5,-0.224 0.5,-0.5c0,-0.276 -0.224,-0.5 -0.5,-0.5h-38.5v-3c0,-3.309 2.691,-6 6,-6h48c3.309,0 6,2.691 6,6v3h-7.5c-0.276,0 -0.5,0.224 -0.5,0.5c0,0.276 0.224,0.5 0.5,0.5h7.5v43h-48.5c-0.276,0 -0.5,0.224 -0.5,0.5c0,0.276 0.224,0.5 0.5,0.5h48.5c0,3.309 -2.691,6 -6,6z" fill="#1f212b"></path><path d="M61.5,30h6c0.277,0 0.5,-0.224 0.5,-0.5c0,-0.276 -0.224,-0.5 -0.5,-0.5h-6c-0.276,0 -0.5,0.224 -0.5,0.5c0,0.276 0.224,0.5 0.5,0.5zM27.5,22c-1.379,0 -2.5,1.121 -2.5,2.5c0,1.379 1.121,2.5 2.5,2.5c1.379,0 2.5,-1.121 2.5,-2.5c0,-1.379 -1.121,-2.5 -2.5,-2.5zM27.5,26c-0.827,0 -1.5,-0.673 -1.5,-1.5c0,-0.827 0.673,-1.5 1.5,-1.5c0.827,0 1.5,0.673 1.5,1.5c0,0.827 -0.673,1.5 -1.5,1.5zM34.5,22c-1.379,0 -2.5,1.121 -2.5,2.5c0,1.379 1.121,2.5 2.5,2.5c1.379,0 2.5,-1.121 2.5,-2.5c0,-1.379 -1.121,-2.5 -2.5,-2.5zM34.5,26c-0.827,0 -1.5,-0.673 -1.5,-1.5c0,-0.827 0.673,-1.5 1.5,-1.5c0.827,0 1.5,0.673 1.5,1.5c0,0.827 -0.673,1.5 -1.5,1.5zM41.5,22c-1.379,0 -2.5,1.121 -2.5,2.5c0,1.379 1.121,2.5 2.5,2.5c1.379,0 2.5,-1.121 2.5,-2.5c0,-1.379 -1.121,-2.5 -2.5,-2.5zM41.5,26c-0.827,0 -1.5,-0.673 -1.5,-1.5c0,-0.827 0.673,-1.5 1.5,-1.5c0.827,0 1.5,0.673 1.5,1.5c0,0.827 -0.673,1.5 -1.5,1.5zM24.5,52h14c0.277,0 0.5,-0.224 0.5,-0.5c0,-0.276 -0.224,-0.5 -0.5,-0.5h-14c-0.276,0 -0.5,0.224 -0.5,0.5c0,0.276 0.224,0.5 0.5,0.5zM24.5,45h14c0.277,0 0.5,-0.224 0.5,-0.5c0,-0.276 -0.224,-0.5 -0.5,-0.5h-14c-0.276,0 -0.5,0.224 -0.5,0.5c0,0.276 0.224,0.5 0.5,0.5zM47.5,48c0.276,0 0.5,-0.224 0.5,-0.5v-11.5h27v13h-19.5c-0.276,0 -0.5,0.224 -0.5,0.5c0,0.276 0.224,0.5 0.5,0.5h20c0.277,0 0.5,-0.224 0.5,-0.5v-14c0,-0.276 -0.224,-0.5 -0.5,-0.5h-28c-0.276,0 -0.5,0.224 -0.5,0.5v12c0,0.276 0.224,0.5 0.5,0.5zM24.5,38h14c0.277,0 0.5,-0.224 0.5,-0.5c0,-0.276 -0.224,-0.5 -0.5,-0.5h-14c-0.276,0 -0.5,0.224 -0.5,0.5c0,0.276 0.224,0.5 0.5,0.5zM39,65.5c0,-0.276 -0.224,-0.5 -0.5,-0.5h-14c-0.276,0 -0.5,0.224 -0.5,0.5c0,0.276 0.224,0.5 0.5,0.5h14c0.277,0 0.5,-0.224 0.5,-0.5zM24.5,59h14c0.277,0 0.5,-0.224 0.5,-0.5c0,-0.276 -0.224,-0.5 -0.5,-0.5h-14c-0.276,0 -0.5,0.224 -0.5,0.5c0,0.276 0.224,0.5 0.5,0.5zM42.5,70c0.277,0 0.5,-0.224 0.5,-0.5v-35c0,-0.276 -0.224,-0.5 -0.5,-0.5c-0.276,0 -0.5,0.224 -0.5,0.5v35c0,0.276 0.224,0.5 0.5,0.5zM47.5,59h11c0.277,0 0.5,-0.224 0.5,-0.5c0,-0.276 -0.224,-0.5 -0.5,-0.5h-11c-0.276,0 -0.5,0.224 -0.5,0.5c0,0.276 0.224,0.5 0.5,0.5zM47.5,66h11c0.277,0 0.5,-0.224 0.5,-0.5c0,-0.276 -0.224,-0.5 -0.5,-0.5h-11c-0.276,0 -0.5,0.224 -0.5,0.5c0,0.276 0.224,0.5 0.5,0.5zM75.5,53h-14c-0.276,0 -0.5,0.224 -0.5,0.5v14c0,0.276 0.224,0.5 0.5,0.5h14c0.277,0 0.5,-0.224 0.5,-0.5v-14c0,-0.276 -0.224,-0.5 -0.5,-0.5zM75,67h-13v-13h13z" fill="#1f212b"></path><path d="M50.5,49c-0.276,0 -0.5,0.224 -0.5,0.5c0,0.276 0.224,0.5 0.5,0.5h3c0.277,0 0.5,-0.224 0.5,-0.5c0,-0.276 -0.224,-0.5 -0.5,-0.5z" fill="#1f212b"></path></g></g></svg>