<svg version="1.1" xmlns="http://www.w3.org/2000/svg" xmlns:xlink="http://www.w3.org/1999/xlink" width="100px" height="100px" viewBox="0,0,256,256"><defs><radialGradient cx="39.281" cy="38.818" r="40.817" gradientUnits="userSpaceOnUse" id="color-1"><stop offset="0" stop-color="#e6ac00"></stop><stop offset="0.173" stop-color="#ffbf00"></stop><stop offset="0.522" stop-color="#ffc722"></stop><stop offset="1" stop-color="#ffd14a"></stop></radialGradient><linearGradient x1="12.341" y1="12.341" x2="36.134" y2="36.134" gradientUnits="userSpaceOnUse" id="color-2"><stop offset="0" stop-color="#4b4b4b"></stop><stop offset="0.531" stop-color="#131617"></stop><stop offset="1" stop-color="#131617"></stop></linearGradient></defs><g fill="none" fill-rule="nonzero" stroke="none" stroke-width="1" stroke-linecap="butt" stroke-linejoin="miter" stroke-miterlimit="10" stroke-dasharray="" stroke-dashoffset="0" font-family="none" font-weight="none" font-size="none" text-anchor="none" style="mix-blend-mode: normal"><g transform="scale(5.33333,5.33333)"><path d="M44,24c0,11.045 -8.955,20 -20,20c-11.045,0 -20,-8.955 -20,-20c0,-11.045 8.955,-20 20,-20c11.045,0 20,8.955 20,20z" fill="url(#color-1)"></path><circle cx="24" cy="24" r="17" fill="url(#color-2)"></circle><path d="M23.271,22.737l12.663,-6.067c0.191,-0.091 0.419,-0.011 0.51,0.18c0.083,0.173 0.024,0.376 -0.129,0.481l-11.586,7.933c-0.667,0.457 -1.577,0.286 -2.034,-0.381c-0.457,-0.667 -0.286,-1.577 0.381,-2.034c0.061,-0.042 0.131,-0.081 0.195,-0.112z" fill="#9e7600"></path><circle cx="24" cy="24" r="2" fill="#e6ac00"></circle><circle cx="24" cy="10" r="1" fill="#666666"></circle><circle cx="38" cy="24" r="1" fill="#666666"></circle><circle cx="10" cy="24" r="1" fill="#666666"></circle><circle cx="17" cy="11.876" r="1" fill="#666666"></circle><circle cx="11.876" cy="31" r="1" fill="#666666"></circle><circle cx="11.876" cy="17" r="1" fill="#666666"></circle><circle cx="36.124" cy="31" r="1" fill="#666666"></circle><circle cx="31" cy="11.876" r="1" fill="#666666"></circle></g></g></svg>