<!DOCTYPE svg PUBLIC "-//W3C//DTD SVG 1.1//EN" "http://www.w3.org/Graphics/SVG/1.1/DTD/svg11.dtd">
<!-- Uploaded to: SVG Repo, www.svgrepo.com, Transformed by: SVG Repo Mixer Tools -->
<svg xmlns="http://www.w3.org/2000/svg" viewBox="0 0 256 256" width="288" height="288"><defs><radialGradient id="a" cx="39.281" cy="38.818" r="40.817" gradientUnits="userSpaceOnUse"><stop offset="0" stop-color="#9ba72d" class="stopColor9ba72d svgShape"></stop><stop offset=".173" stop-color="#9ba72d" class="stopColorffbf00 svgShape"></stop><stop offset=".522" stop-color="#9ba72d" class="stopColorffc722 svgShape"></stop><stop offset="1" stop-color="#9ba72d" class="stopColorffd14a svgShape"></stop></radialGradient><linearGradient id="b" x1="12.341" x2="36.134" y1="12.341" y2="36.134" gradientUnits="userSpaceOnUse"><stop offset="0" stop-color="#4b4b4b" class="stopColor4b4b4b svgShape"></stop><stop offset=".531" stop-color="#131617" class="stopColor131617 svgShape"></stop><stop offset="1" stop-color="#131617" class="stopColor131617 svgShape"></stop></linearGradient></defs><g fill="none" stroke-miterlimit="10" font-family="none" font-size="none" font-weight="none" text-anchor="none" transform="scale(5.33333)"><path fill="url(#a)" d="M44,24c0,11.045 -8.955,20 -20,20c-11.045,0 -20,-8.955 -20,-20c0,-11.045 8.955,-20 20,-20c11.045,0 20,8.955 20,20z"></path><circle cx="24" cy="24" r="17" fill="url(#b)"></circle><path fill="#586100" d="M23.271,22.737l12.663,-6.067c0.191,-0.091 0.419,-0.011 0.51,0.18c0.083,0.173 0.024,0.376 -0.129,0.481l-11.586,7.933c-0.667,0.457 -1.577,0.286 -2.034,-0.381c-0.457,-0.667 -0.286,-1.577 0.381,-2.034c0.061,-0.042 0.131,-0.081 0.195,-0.112z" class="color9e7600 svgShape"></path><circle cx="24" cy="24" r="2" fill="#9ba72d" class="color9ba72d svgShape"></circle><circle cx="24" cy="10" r="1" fill="#666666" class="color666 svgShape"></circle><circle cx="38" cy="24" r="1" fill="#666666" class="color666 svgShape"></circle><circle cx="10" cy="24" r="1" fill="#666666" class="color666 svgShape"></circle><circle cx="17" cy="11.876" r="1" fill="#666666" class="color666 svgShape"></circle><circle cx="11.876" cy="31" r="1" fill="#666666" class="color666 svgShape"></circle><circle cx="11.876" cy="17" r="1" fill="#666666" class="color666 svgShape"></circle><circle cx="36.124" cy="31" r="1" fill="#666666" class="color666 svgShape"></circle><circle cx="31" cy="11.876" r="1" fill="#666666" class="color666 svgShape"></circle></g></svg>